<?xml version="1.0" standalone="no"?>
<!DOCTYPE svg PUBLIC "-//W3C//DTD SVG 20010904//EN"
 "http://www.w3.org/TR/2001/REC-SVG-20010904/DTD/svg10.dtd">
<svg version="1.0" xmlns="http://www.w3.org/2000/svg"
 width="512.000000pt" height="512.000000pt" viewBox="0 0 512.000000 512.000000"
 preserveAspectRatio="xMidYMid meet">
<metadata>
Created by potrace 1.14, written by Peter Selinger 2001-2017
</metadata>
<g transform="translate(0.000000,512.000000) scale(0.100000,-0.100000)"
fill="#000000" stroke="none">
<path d="M736 4579 c-105 -36 -171 -93 -224 -193 l-27 -51 -3 -1092 c-2 -1087
-2 -1092 19 -1147 11 -31 31 -69 45 -85 13 -16 24 -33 24 -38 0 -5 -22 -25
-48 -45 -67 -50 -96 -98 -190 -315 -307 -712 -296 -685 -295 -743 0 -73 16
-126 55 -184 45 -68 117 -122 196 -146 66 -20 85 -20 2297 -18 l2230 3 62 29
c74 34 154 114 185 183 15 33 21 70 22 123 l1 75 -179 415 c-98 228 -190 437
-204 463 -25 46 -81 105 -131 138 l-25 16 27 34 c14 19 37 57 49 85 l23 49 0
1090 0 1090 -32 65 c-17 36 -40 74 -50 86 -41 46 -117 95 -179 114 -65 20 -86
20 -1828 20 -1745 -1 -1762 -1 -1820 -21z m3659 -164 c36 -22 57 -45 77 -84
l28 -53 0 -1049 c0 -1149 3 -1088 -58 -1152 -15 -16 -45 -39 -67 -50 l-40 -22
-1745 -3 c-1237 -2 -1758 0 -1790 8 -65 16 -115 52 -147 107 l-28 48 -3 1040
c-2 803 0 1050 10 1085 15 54 86 130 138 147 25 8 527 11 1806 10 l1771 -2 48
-30z m83 -2584 c73 -38 89 -66 262 -470 92 -215 165 -393 162 -396 -9 -9
-4682 -6 -4682 4 0 22 331 775 353 805 14 18 45 43 69 55 l43 21 1878 0 c1828
0 1879 -1 1915 -19z m-2438 -1091 l0 -70 -847 0 c-827 0 -848 0 -888 20 -43
21 -70 46 -100 93 l-17 27 926 0 926 0 0 -70z m890 0 l0 -70 -370 0 -370 0 0
70 0 70 370 0 370 0 0 -70z m2000 60 c0 -20 -76 -94 -115 -111 -38 -18 -89
-19 -887 -19 l-848 0 0 70 0 70 925 0 c608 0 925 -3 925 -10z"/>
<path d="M2662 3853 c-7 -3 -19 -17 -26 -31 -15 -30 -316 -1158 -316 -1186 0
-26 55 -76 84 -76 14 0 37 10 52 23 24 21 42 83 180 602 85 319 154 590 154
603 0 35 -43 72 -82 71 -18 0 -39 -3 -46 -6z"/>
<path d="M3010 3727 c-35 -18 -55 -57 -46 -93 5 -19 71 -92 197 -219 104 -105
189 -195 189 -201 0 -6 -10 -19 -21 -30 -12 -10 -97 -99 -190 -196 -150 -157
-169 -180 -169 -210 0 -56 57 -100 108 -84 11 4 121 113 246 243 232 244 253
273 228 319 -22 40 -468 473 -492 479 -14 3 -36 -1 -50 -8z"/>
<path d="M1798 3498 c-254 -261 -260 -270 -214 -336 14 -20 120 -134 235 -251
198 -204 211 -215 246 -215 29 0 43 7 61 28 49 56 42 68 -167 286 -105 110
-189 204 -187 209 2 5 87 97 191 205 203 211 210 224 166 280 -16 21 -29 26
-62 26 -41 0 -44 -3 -269 -232z"/>
<path d="M710 1697 c-19 -10 -42 -51 -97 -177 -39 -91 -72 -175 -72 -188 -1
-13 10 -34 24 -47 24 -25 27 -25 194 -25 93 0 177 3 186 6 24 10 46 60 39 89
-11 45 -39 55 -152 55 -57 0 -102 4 -100 8 2 4 16 38 32 75 l29 67 1769 0
1769 0 23 -52 c13 -29 26 -63 30 -75 l7 -23 -1604 0 -1604 0 -21 -23 c-31 -33
-29 -80 4 -106 l27 -21 1667 0 1667 0 27 21 c17 14 26 30 26 49 0 42 -126 330
-156 358 l-25 22 -1832 0 c-1454 0 -1837 -3 -1857 -13z"/>
</g>
</svg>
