<svg xmlns="http://www.w3.org/2000/svg" viewBox="0 0 527 527">
    <g>
        <path d="M527,476.66c-3.18,9.95-8.57,17.94-19.29,20.75a42.62,42.62,0,0,1-10.63,1.23q-215.19.09-430.36,0c-32.3,0-57-19.1-64-49.28a69,69,0,0,1-1.59-15.25Q1,262.86,1.05,91.59c0-34.91,26-62.63,59.77-64.09,8.65-.37,11.82,2.59,11.83,11.37q.07,45.45,0,90.9v6.62H87.49c9.25,0,18.49,0,27.73,0,7.72,0,11.73,2.86,11.83,8.32s-4,8.53-11.59,8.54c-12.33,0-24.65,0-37,0H72.67V375.35c0,11.79-1.72,13.73-13.19,14.85-22.75,2.23-39.77,20.12-41.11,43.18-1.28,22.2,14.26,42.68,36.07,47.17a66.14,66.14,0,0,0,13.27,1.13q214.15.09,428.3,0c11,0,13.87-2.93,13.87-14.1q0-150.21,0-300.42c0-10.17-1.23-11.73-10.95-14.13-4.84-1.2-7.41-4.67-6.88-9.29.51-4.47,4-7.26,9-7.29,10.27-.06,20.27,7,24.06,17,.61,1.58,1.26,3.14,1.89,4.71ZM55.52,45.64a10.49,10.49,0,0,0-1.81,0c-21.43,4.9-35.49,23-35.52,46.66q-.17,147.39,0,294.8c0,1.38.26,2.76.47,4.94,9.43-9,19.34-15.29,31.28-17.45,4.78-.86,5.73-2.9,5.72-7.44q-.21-157.92-.11-315.86Z"/>
        <path d="M146.5,244.43V97.6c0-1.37,0-2.74,0-4.1-.16-4.69.4-9.19,5.52-11s8.62,1.1,11.65,5.1c12,15.83,24.08,31.55,36.13,47.31q97.74,127.82,195.45,255.63a36.48,36.48,0,0,1,3.27,4.59,8.36,8.36,0,0,1-6,12.53,30.06,30.06,0,0,1-5.12.18H159.41c-10.62,0-12.9-2.28-12.9-13Q146.5,319.64,146.5,244.43ZM373.79,390.52l-210-274.62V390.52Z"/>
        <path d="M419.1,264.08q0-80.08.1-160.17A34.91,34.91,0,0,1,421.46,92c4.88-13,10.21-25.73,15.29-38.6,1.67-4.22,3.91-7.85,9-7.88s7.36,3.56,9,7.8c5.25,13.35,10.71,26.63,15.82,40a28.68,28.68,0,0,1,1.86,10q.13,159.91.07,319.83c0,14.44-6.52,20.92-21,21-4.63,0-9.25.09-13.87,0-11.5-.31-18.41-7.29-18.48-18.79-.08-13.86,0-27.72,0-41.58ZM436.49,117.3v273H455v-273Zm-.31,290.75c0,5.69-.14,11,.12,16.22,0,1,1.59,2.74,2.51,2.78,5.37.27,10.77.14,16.22.14V408.05ZM445.78,77c-3.33,8.32-6.12,15.28-9.09,22.68H454.8Z"/>
        <path d="M318.52,136.4q34.14,0,68.29,0a36.37,36.37,0,0,1,5.63.23c4.51.73,6.92,3.57,7.15,8.06.24,4.33-2.85,7.78-7.36,8.39a37.93,37.93,0,0,1-5.12.18H250c-8.6,0-12.71-2.8-12.62-8.54s4.11-8.33,12.83-8.33Q284.38,136.39,318.52,136.4Z"/>
        <path d="M192,288.65c0-20.53,0-41.06,0-61.59,0-4.63.82-8.63,5.66-10.37,5.14-1.85,8.35,1,11.24,4.82q47.81,62.6,95.69,125.12c2.54,3.32,4.32,6.72,2.39,10.83-2.06,4.37-6,5-10.39,5q-46.45,0-92.9,0c-8.8,0-11.63-2.88-11.64-11.7Q191.93,319.7,192,288.65ZM281.78,345,210,251.18l-.88.78v93Z"/>
    </g>
</svg>